# xmcd
#
# Track frame offsets:
#	150
#	14282
#	29687
#	43770
#	59717
#	75035
#	91882
#	108927
#	128740
#	144430
#	167005
#
# Disc length: 2453 seconds
#
# Revision: 5
# Processed by: cddbd v1.5.2PL0 Copyright (c) Steve Scherf et al.
# Submitted via: EasyCDDAExtractor 15.3.0.1
#
DISCID=8609930b
DTITLE=Yuri - Suigeneris
DYEAR=1989
DGENRE=Latin
TTITLE0=Embrujada (Estoy)
TTITLE1=Es Inutil Ya
TTITLE2=Dejame Amarte Mas
TTITLE3=Fascinacion
TTITLE4=Fiesta Del Interior (Festa Do Interior)
TTITLE5=Me Tienes Que Querer
TTITLE6=Tienes El Control De Mi Corazon
TTITLE7=Amigos
TTITLE8=Mi Vecina
TTITLE9=Por Buen Camino
TTITLE10=Fiebre
EXTD=
EXTT0=
EXTT1=
EXTT2=
EXTT3=
EXTT4=
EXTT5=
EXTT6=
EXTT7=
EXTT8=
EXTT9=
EXTT10=
PLAYORDER=
